CalSansText-SemiBold.ufo
<glyph name="percent" format="2">
  <advance width="741.0"/>
  <unicode hex="0025"/>
  <outline>
    <contour>
      <point x="73.5" y="0.0" type="line"/>
      <point x="167.25" y="0.0" type="line"/>
      <point x="664.25" y="700.0" type="line"/>
      <point x="571.5" y="700.0" type="line"/>
    </contour>
    <contour>
      <point x="540.0" y="-7.35" type="curve" smooth="yes"/>
      <point x="630.025" y="-7.35"/>
      <point x="696.0" y="61.625"/>
      <point x="696.0" y="144.65" type="curve" smooth="yes"/>
      <point x="696.0" y="228.35000000000002"/>
      <point x="630.35" y="299.65"/>
      <point x="540.0" y="299.65" type="curve" smooth="yes"/>
      <point x="449.975" y="299.65"/>
      <point x="385.0" y="228.675"/>
      <point x="385.0" y="144.65" type="curve" smooth="yes"/>
      <point x="385.0" y="61.625"/>
      <point x="449.975" y="-7.35"/>
    </contour>
    <contour>
      <point x="540.0" y="62.575" type="curve" smooth="yes"/>
      <point x="493.15000000000003" y="62.575"/>
      <point x="461.25" y="99.125"/>
      <point x="461.25" y="144.325" type="curve" smooth="yes"/>
      <point x="461.25" y="192.175"/>
      <point x="493.15000000000003" y="228.725"/>
      <point x="540.0" y="228.725" type="curve" smooth="yes"/>
      <point x="587.175" y="228.725"/>
      <point x="619.075" y="192.175"/>
      <point x="619.075" y="144.325" type="curve" smooth="yes"/>
      <point x="620.75" y="97.8"/>
      <point x="588.5" y="61.900000000000006"/>
    </contour>
    <contour>
      <point x="200.0" y="401.0" type="curve" smooth="yes"/>
      <point x="290.025" y="401.0"/>
      <point x="356.0" y="469.975"/>
      <point x="356.0" y="553.0" type="curve" smooth="yes"/>
      <point x="356.0" y="636.025"/>
      <point x="291.025" y="708.0"/>
      <point x="200.0" y="708.0" type="curve" smooth="yes"/>
      <point x="109.975" y="708.0"/>
      <point x="45.0" y="637.025"/>
      <point x="45.0" y="553.0" type="curve" smooth="yes"/>
      <point x="45.0" y="469.975"/>
      <point x="109.975" y="401.0"/>
    </contour>
    <contour>
      <point x="200.0" y="470.92499999999995" type="curve" smooth="yes"/>
      <point x="153.15" y="470.92499999999995"/>
      <point x="121.25" y="507.475"/>
      <point x="121.25" y="552.675" type="curve" smooth="yes"/>
      <point x="121.25" y="600.525"/>
      <point x="153.15" y="637.075"/>
      <point x="200.0" y="637.075" type="curve" smooth="yes"/>
      <point x="247.85000000000002" y="637.075"/>
      <point x="279.075" y="600.525"/>
      <point x="279.075" y="552.675" type="curve" smooth="yes"/>
      <point x="280.75" y="506.15"/>
      <point x="249.175" y="470.92499999999995"/>
    </contour>
  </outline>
</glyph>
<glyph name="quotesingle" format="2">
  <advance width="226.05"/>
  <unicode hex="0027"/>
  <outline>
    <contour>
      <point x="82.375" y="437.625" type="line"/>
      <point x="142.675" y="437.625" type="line"/>
      <point x="168.675" y="644.625" type="line" smooth="yes"/>
      <point x="173.35" y="680.4"/>
      <point x="150.175" y="713.0"/>
      <point x="113.525" y="713.0" type="curve" smooth="yes"/>
      <point x="76.875" y="713.0"/>
      <point x="51.725" y="683.975"/>
      <point x="57.05" y="644.625" type="curve" smooth="yes"/>
    </contour>
  </outline>
</glyph>
<glyph name="parenright" format="2">
  <advance width="353.7"/>
  <unicode hex="0029"/>
  <outline>
    <contour>
      <point x="141.425" y="-214.0" type="line"/>
      <point x="328.425" y="65.0"/>
      <point x="327.425" y="545.0"/>
      <point x="141.425" y="803.0" type="curve"/>
      <point x="42.275" y="749.75" type="line"/>
      <point x="210.85" y="512.725"/>
      <point x="204.85000000000002" y="118.25"/>
      <point x="42.275" y="-160.425" type="curve"/>
    </contour>
  </outline>
</glyph>
<glyph name="three" format="2">
  <advance width="578.6"/>
  <unicode hex="0033"/>
  <outline>
    <contour>
      <point x="271.45" y="-13.0" type="curve" smooth="yes"/>
      <point x="415.6" y="-13.0"/>
      <point x="510.575" y="71.025"/>
      <point x="510.575" y="202.02499999999998" type="curve" smooth="yes"/>
      <point x="510.575" y="275.25"/>
      <point x="458.95" y="349.275"/>
      <point x="380.25" y="370.3" type="curve"/>
      <point x="380.25" y="374.29999999999995" type="line"/>
      <point x="447.54999999999995" y="388.275"/>
      <point x="494.57500000000005" y="452.5"/>
      <point x="494.57500000000005" y="519.275" type="curve" smooth="yes"/>
      <point x="494.57500000000005" y="634.0"/>
      <point x="401.15" y="713.0"/>
      <point x="270.1" y="713.0" type="curve" smooth="yes"/>
      <point x="140.15" y="713.0"/>
      <point x="35.325" y="634.0"/>
      <point x="38.325" y="500.0" type="curve"/>
      <point x="156.75" y="500.0" type="line"/>
      <point x="153.75" y="559.65"/>
      <point x="203.29999999999998" y="601.2"/>
      <point x="269.75" y="601.2" type="curve" smooth="yes"/>
      <point x="334.9" y="601.2"/>
      <point x="375.825" y="561.975"/>
      <point x="375.825" y="503.525" type="curve" smooth="yes"/>
      <point x="375.825" y="444.32500000000005"/>
      <point x="333.625" y="404.75"/>
      <point x="261.25" y="404.75" type="curve" smooth="yes"/>
      <point x="179.175" y="404.75" type="line"/>
      <point x="179.175" y="301.375" type="line"/>
      <point x="260.275" y="302.375" type="line" smooth="yes"/>
      <point x="344.35" y="303.05"/>
      <point x="388.79999999999995" y="265.85"/>
      <point x="388.79999999999995" y="200.375" type="curve" smooth="yes"/>
      <point x="388.79999999999995" y="139.27499999999998"/>
      <point x="347.3" y="92.725"/>
      <point x="271.45" y="92.725" type="curve" smooth="yes"/>
      <point x="203.95" y="92.725"/>
      <point x="150.72500000000002" y="140.925"/>
      <point x="153.725" y="209.0" type="curve"/>
      <point x="31.6" y="209.0" type="line"/>
      <point x="28.6" y="73.0"/>
      <point x="124.975" y="-13.0"/>
    </contour>
  </outline>
</glyph>
<glyph name="d" format="2">
  <advance width="635.775"/>
  <unicode hex="0064"/>
  <anchor x="480.15" y="601.525" name="bar"/>
  <anchor x="289.525" y="0.0" name="bottom"/>
  <anchor x="301.275" y="250.39999999999998" name="center"/>
  <anchor x="289.85" y="492.97499999999997" name="top"/>
  <anchor x="635.1" y="700.0" name="topright"/>
  <outline>
    <contour>
      <point x="283.825" y="-13.0" type="curve" smooth="yes"/>
      <point x="360.375" y="-13.0"/>
      <point x="423.45000000000005" y="24.575"/>
      <point x="446.675" y="80.5" type="curve"/>
      <point x="452.675" y="80.5" type="line"/>
      <point x="452.675" y="0.0" type="line"/>
      <point x="565.8" y="0.0" type="line"/>
      <point x="565.8" y="700.0" type="line"/>
      <point x="448.675" y="700.0" type="line"/>
      <point x="448.675" y="419.25" type="line"/>
      <point x="442.35" y="419.25" type="line"/>
      <point x="420.1" y="475.225"/>
      <point x="356.04999999999995" y="513.125"/>
      <point x="283.825" y="513.125" type="curve" smooth="yes"/>
      <point x="136.775" y="513.125"/>
      <point x="35.45" y="394.3"/>
      <point x="35.45" y="249.4" type="curve" smooth="yes"/>
      <point x="35.45" y="105.5"/>
      <point x="136.775" y="-13.0"/>
    </contour>
    <contour>
      <point x="301.275" y="94.07499999999999" type="curve" smooth="yes"/>
      <point x="212.2" y="94.07499999999999"/>
      <point x="152.57500000000002" y="160.925"/>
      <point x="152.57500000000002" y="250.39999999999998" type="curve" smooth="yes"/>
      <point x="152.57500000000002" y="340.175"/>
      <point x="212.2" y="406.04999999999995"/>
      <point x="301.275" y="406.04999999999995" type="curve" smooth="yes"/>
      <point x="388.4" y="406.04999999999995"/>
      <point x="449.0" y="339.2"/>
      <point x="449.0" y="249.4" type="curve" smooth="yes"/>
      <point x="449.0" y="161.575"/>
      <point x="388.4" y="94.07499999999999"/>
    </contour>
  </outline>
</glyph>
<glyph name="e" format="2">
  <advance width="577.25"/>
  <unicode hex="0065"/>
  <anchor x="302.2" y="0.0" name="bottom"/>
  <anchor x="340.70000000000005" y="18.85" name="ogonek"/>
  <anchor x="296.125" y="500.125" name="top"/>
  <outline>
    <contour>
      <point x="300.85" y="-13.0" type="curve" smooth="yes"/>
      <point x="392.9" y="-13.0"/>
      <point x="469.95" y="23.725"/>
      <point x="513.925" y="76.625" type="curve"/>
      <point x="435.325" y="153.3" type="line"/>
      <point x="406.40000000000003" y="113.4"/>
      <point x="359.05" y="92.05000000000001"/>
      <point x="303.2" y="92.05000000000001" type="curve" smooth="yes"/>
      <point x="213.925" y="92.05000000000001"/>
      <point x="161.2" y="159.375"/>
      <point x="156.5" y="237.05" type="curve"/>
      <point x="155.82500000000002" y="255.125" type="line"/>
      <point x="153.475" y="358.625"/>
      <point x="210.35000000000002" y="415.5"/>
      <point x="293.8" y="415.5" type="curve" smooth="yes"/>
      <point x="382.25" y="415.5"/>
      <point x="424.07500000000005" y="355.375"/>
      <point x="420.75" y="258.5" type="curve"/>
      <point x="456.85" y="305.6" type="line"/>
      <point x="106.05000000000001" y="305.6" type="line"/>
      <point x="106.05000000000001" y="215.35000000000002" type="line"/>
      <point x="535.2" y="215.35000000000002" type="line"/>
      <point x="537.875" y="224.35"/>
      <point x="538.55" y="242.075"/>
      <point x="538.55" y="256.8" type="curve" smooth="yes"/>
      <point x="538.55" y="409.825"/>
      <point x="443.475" y="513.125"/>
      <point x="295.8" y="513.125" type="curve" smooth="yes"/>
      <point x="148.45" y="513.125"/>
      <point x="38.7" y="410.225"/>
      <point x="38.7" y="248.025" type="curve" smooth="yes"/>
      <point x="38.7" y="98.025"/>
      <point x="143.075" y="-13.0"/>
    </contour>
  </outline>
</glyph>
<glyph name="h" format="2">
  <advance width="590.05"/>
  <unicode hex="0068"/>
  <anchor x="129.55" y="587.35" name="bar"/>
  <anchor x="300.125" y="0.0" name="bottom"/>
  <anchor x="407.275" y="0.0" name="ogonek"/>
  <anchor x="129.55" y="700.0" name="top"/>
  <outline>
    <contour>
      <point x="70.65" y="0.0" type="line"/>
      <point x="187.77499999999998" y="0.0" type="line"/>
      <point x="187.77499999999998" y="292.625" type="line" smooth="yes"/>
      <point x="187.77499999999998" y="364.5"/>
      <point x="231.625" y="409.42499999999995"/>
      <point x="300.725" y="409.42499999999995" type="curve" smooth="yes"/>
      <point x="366.975" y="409.42499999999995"/>
      <point x="407.275" y="364.5"/>
      <point x="407.275" y="292.625" type="curve" smooth="yes"/>
      <point x="407.275" y="0.0" type="line"/>
      <point x="524.4" y="0.0" type="line"/>
      <point x="524.4" y="320.75" type="line" smooth="yes"/>
      <point x="524.4" y="433.7"/>
      <point x="442.30000000000007" y="513.125"/>
      <point x="341.075" y="513.125" type="curve" smooth="yes"/>
      <point x="267.125" y="513.125"/>
      <point x="218.07500000000002" y="473.125"/>
      <point x="193.775" y="432.875" type="curve"/>
      <point x="187.77499999999998" y="432.875" type="line"/>
      <point x="187.77499999999998" y="700.0" type="line"/>
      <point x="70.65" y="700.0" type="line"/>
    </contour>
  </outline>
</glyph>
<glyph name="r" format="2">
  <advance width="386.525"/>
  <unicode hex="0072"/>
  <anchor x="129.55" y="0.0" name="bottom"/>
  <anchor x="225.25" y="500.125" name="top"/>
  <outline>
    <contour>
      <point x="70.65" y="0.0" type="line"/>
      <point x="187.77499999999998" y="0.0" type="line"/>
      <point x="187.77499999999998" y="262.7" type="line" smooth="yes"/>
      <point x="187.77499999999998" y="349.7"/>
      <point x="251.475" y="395.075"/>
      <point x="348.175" y="395.075" type="curve" smooth="yes"/>
      <point x="375.2" y="395.075" type="line"/>
      <point x="377.20000000000005" y="506.125" type="line"/>
      <point x="368.52500000000003" y="506.45"/>
      <point x="360.525" y="507.125"/>
      <point x="352.175" y="507.125" type="curve" smooth="yes"/>
      <point x="260.45" y="507.125"/>
      <point x="207.4" y="476.5"/>
      <point x="189.1" y="420.4" type="curve"/>
      <point x="183.775" y="420.4" type="line"/>
      <point x="183.775" y="500.125" type="line"/>
      <point x="70.65" y="500.125" type="line"/>
    </contour>
  </outline>
</glyph>
<glyph name="eth" format="2">
  <advance width="601.0"/>
  <unicode hex="00F0"/>
  <outline>
    <contour>
      <point x="378.92499999999995" y="484.375" type="curve"/>
      <point x="373.25" y="480.7" type="line"/>
      <point x="342.375" y="501.775"/>
      <point x="307.55" y="508.4"/>
      <point x="276.325" y="508.4" type="curve" smooth="yes"/>
      <point x="152.5" y="508.4"/>
      <point x="38.7" y="400.15"/>
      <point x="38.7" y="246.47500000000002" type="curve" smooth="yes"/>
      <point x="38.7" y="100.025"/>
      <point x="144.14999999999998" y="-13.0"/>
      <point x="292.45000000000005" y="-13.0" type="curve" smooth="yes"/>
      <point x="448.92500000000007" y="-13.0"/>
      <point x="562.3" y="96.45"/>
      <point x="562.3" y="252.65" type="curve" smooth="yes"/>
      <point x="562.3" y="442.975"/>
      <point x="424.70000000000005" y="670.125"/>
      <point x="233.85000000000002" y="825.0" type="curve"/>
      <point x="150.175" y="745.7" type="line"/>
      <point x="254.375" y="661.85"/>
      <point x="316.075" y="595.225"/>
    </contour>
    <contour>
      <point x="299.525" y="94.07499999999999" type="curve" smooth="yes"/>
      <point x="214.75" y="94.07499999999999"/>
      <point x="155.82500000000002" y="157.20000000000002"/>
      <point x="155.82500000000002" y="249.72500000000002" type="curve" smooth="yes"/>
      <point x="155.82500000000002" y="343.25"/>
      <point x="217.025" y="406.04999999999995"/>
      <point x="299.525" y="406.04999999999995" type="curve" smooth="yes"/>
      <point x="384.3" y="406.04999999999995"/>
      <point x="443.55" y="342.925"/>
      <point x="443.55" y="249.72500000000002" type="curve" smooth="yes"/>
      <point x="443.55" y="156.55"/>
      <point x="384.3" y="94.07499999999999"/>
    </contour>
    <contour>
      <point x="156.9" y="533.175" type="line"/>
      <point x="507.5" y="646.425" type="line"/>
      <point x="507.5" y="747.825" type="line"/>
      <point x="345.85" y="695.25" type="line"/>
      <point x="297.35" y="672.45" type="line"/>
      <point x="156.9" y="629.85" type="line"/>
    </contour>
  </outline>
</glyph>
<glyph name="macroncomb" format="2">
  <unicode hex="0304"/>
  <anchor x="0.0" y="500.125" name="_top"/>
  <anchor x="0.0" y="667.675" name="top"/>
  <outline>
    <contour>
      <point x="-147.15" y="604.175" type="line"/>
      <point x="147.15" y="604.175" type="line"/>
      <point x="147.15" y="681.825" type="line"/>
      <point x="-147.15" y="681.825" type="line"/>
    </contour>
  </outline>
</glyph>
<glyph name="pi" format="2">
  <advance width="605.1"/>
  <unicode hex="03C0"/>
  <outline>
    <contour>
      <point x="545.3" y="-7.0" type="curve" smooth="yes"/>
      <point x="561.5" y="-7.325"/>
      <point x="574.85" y="-5.675000000000001"/>
      <point x="586.075" y="-2.4000000000000004" type="curve"/>
      <point x="586.075" y="105.72500000000001" type="line"/>
      <point x="577.4" y="102.775"/>
      <point x="562.2" y="101.775"/>
      <point x="550.6" y="101.775" type="curve" smooth="yes"/>
      <point x="505.6" y="101.775"/>
      <point x="484.29999999999995" y="123.35000000000001"/>
      <point x="484.29999999999995" y="170.225" type="curve" smooth="yes"/>
      <point x="484.29999999999995" y="395.725" type="line"/>
      <point x="586.075" y="395.725" type="line"/>
      <point x="586.075" y="500.125" type="line"/>
      <point x="19.025" y="500.125" type="line"/>
      <point x="19.025" y="395.725" type="line"/>
      <point x="119.175" y="395.725" type="line"/>
      <point x="119.175" y="0.0" type="line"/>
      <point x="236.3" y="0.0" type="line"/>
      <point x="236.3" y="395.725" type="line"/>
      <point x="367.175" y="395.725" type="line"/>
      <point x="367.175" y="161.85" type="line" smooth="yes"/>
      <point x="367.175" y="31.449999999999996"/>
      <point x="448.25" y="-6.025"/>
    </contour>
  </outline>
</glyph>
<glyph name="guilsinglleft" format="2">
  <advance width="364.05"/>
  <unicode hex="2039"/>
  <outline>
    <contour>
      <point x="190.275" y="48.0" type="line"/>
      <point x="311.775" y="48.0" type="line"/>
      <point x="179.77500000000003" y="265.375" type="line"/>
      <point x="179.77500000000003" y="269.375" type="line"/>
      <point x="311.775" y="477.0" type="line"/>
      <point x="188.275" y="477.0" type="line"/>
      <point x="62.275" y="263.0" type="line"/>
    </contour>
  </outline>
</glyph>
<glyph name="tugrik" format="2">
  <advance width="617.3249999999999"/>
  <unicode hex="20AE"/>
  <outline>
    <contour>
      <point x="248.25" y="30.0" type="line"/>
      <point x="369.4" y="30.0" type="line"/>
      <point x="369.4" y="613.4499999999999" type="line"/>
      <point x="248.25" y="613.4499999999999" type="line"/>
    </contour>
    <contour>
      <point x="45.650000000000006" y="554.175" type="line"/>
      <point x="571.675" y="554.175" type="line"/>
      <point x="571.675" y="670.0" type="line"/>
      <point x="45.650000000000006" y="670.0" type="line"/>
    </contour>
    <contour>
      <point x="75.8" y="151.95" type="line"/>
      <point x="541.5250000000001" y="250.32500000000002" type="line"/>
      <point x="541.5250000000001" y="336.1" type="line"/>
      <point x="75.8" y="237.72500000000002" type="line"/>
    </contour>
    <contour>
      <point x="75.8" y="293.725" type="line"/>
      <point x="541.5250000000001" y="392.1" type="line"/>
      <point x="541.5250000000001" y="473.825" type="line"/>
      <point x="75.8" y="378.825" type="line"/>
    </contour>
  </outline>
</glyph>
<glyph name="peso" format="2">
  <advance width="613.475"/>
  <unicode hex="20B1"/>
  <outline>
    <contour>
      <point x="89.75" y="30.0" type="line"/>
      <point x="210.89999999999998" y="30.0" type="line"/>
      <point x="210.89999999999998" y="198.375" type="line"/>
      <point x="285.35" y="198.375" type="line" smooth="yes"/>
      <point x="431.925" y="198.375"/>
      <point x="543.725" y="276.075"/>
      <point x="543.725" y="434.0" type="curve" smooth="yes"/>
      <point x="543.725" y="590.925"/>
      <point x="431.6" y="670.0"/>
      <point x="285.35" y="670.0" type="curve" smooth="yes"/>
      <point x="89.75" y="670.0" type="line"/>
    </contour>
    <contour>
      <point x="210.89999999999998" y="314.2" type="line"/>
      <point x="210.89999999999998" y="554.175" type="line"/>
      <point x="290.85" y="554.175" type="line" smooth="yes"/>
      <point x="371.4" y="554.175"/>
      <point x="420.25" y="521.275"/>
      <point x="420.25" y="433.325" type="curve" smooth="yes"/>
      <point x="420.25" y="344.04999999999995"/>
      <point x="371.4" y="314.2"/>
      <point x="290.85" y="314.2" type="curve" smooth="yes"/>
    </contour>
    <contour>
      <point x="20.0" y="352.75" type="line"/>
      <point x="610.225" y="352.75" type="line"/>
      <point x="610.225" y="414.75" type="line"/>
      <point x="20.0" y="414.75" type="line"/>
    </contour>
    <contour>
      <point x="20.0" y="453.625" type="line"/>
      <point x="610.225" y="453.625" type="line"/>
      <point x="610.225" y="515.625" type="line"/>
      <point x="20.0" y="515.625" type="line"/>
    </contour>
  </outline>
</glyph>
<glyph name="liraTurkish" format="2">
  <advance width="559.625"/>
  <unicode hex="20BA"/>
  <outline>
    <contour>
      <point x="27.15" y="298.95" type="line"/>
      <point x="492.2" y="397.32500000000005" type="line"/>
      <point x="492.2" y="483.1" type="line"/>
      <point x="27.15" y="384.725" type="line"/>
    </contour>
    <contour>
      <point x="27.15" y="438.775" type="line"/>
      <point x="492.2" y="537.15" type="line"/>
      <point x="492.2" y="618.875" type="line"/>
      <point x="27.15" y="523.875" type="line"/>
    </contour>
    <contour>
      <point x="100.275" y="26.75" type="line"/>
      <point x="225.9" y="26.75" type="line" smooth="yes"/>
      <point x="397.15000000000003" y="26.75"/>
      <point x="501.35" y="110.05000000000001"/>
      <point x="518.7" y="271.175" type="curve" smooth="yes"/>
      <point x="523.0250000000001" y="309.725" type="line"/>
      <point x="414.925" y="320.77500000000003" type="line"/>
      <point x="411.275" y="285.225" type="line" smooth="yes"/>
      <point x="400.29999999999995" y="189.85"/>
      <point x="344.9" y="142.57500000000002"/>
      <point x="253.22500000000002" y="142.57500000000002" type="curve" smooth="yes"/>
      <point x="221.425" y="142.57500000000002" type="line"/>
      <point x="221.425" y="673.25" type="line"/>
      <point x="100.275" y="673.25" type="line"/>
    </contour>
  </outline>
</glyph>
<glyph name="riyalSaudi" format="2">
  <advance width="600.0"/>
  <unicode hex="20C1"/>
  <outline>
    <contour>
      <point x="18.0" y="76.475" type="line"/>
      <point x="131.625" y="106.15" type="line" smooth="yes"/>
      <point x="210.875" y="127.22500000000001"/>
      <point x="268.725" y="208.325"/>
      <point x="268.725" y="290.9" type="curve" smooth="yes"/>
      <point x="268.725" y="760.25" type="line"/>
      <point x="185.225" y="718.5" type="line"/>
      <point x="184.25" y="222.70000000000002" type="line"/>
      <point x="36.025" y="186.72500000000002" type="line"/>
    </contour>
    <contour>
      <point x="339.65" y="26.95" type="line"/>
      <point x="564.6500000000001" y="74.6" type="line"/>
      <point x="583.0" y="184.20000000000002" type="line"/>
      <point x="358.975" y="137.55" type="line"/>
    </contour>
    <contour>
      <point x="18.0" y="274.775" type="line"/>
      <point x="564.0" y="396.77500000000003" type="line"/>
      <point x="583.0" y="507.35" type="line"/>
      <point x="36.025" y="385.35" type="line"/>
    </contour>
    <contour>
      <point x="332.9" y="188.85" type="line"/>
      <point x="564.0" y="235.2" type="line"/>
      <point x="583.0" y="345.775" type="line"/>
      <point x="362.0" y="297.8" type="line"/>
    </contour>
    <contour>
      <point x="332.9" y="188.85" type="line"/>
      <point x="416.40000000000003" y="211.925" type="line"/>
      <point x="416.40000000000003" y="713.0" type="line"/>
      <point x="332.9" y="672.9250000000001" type="line"/>
    </contour>
  </outline>
</glyph>
<glyph name="lozenge" format="2">
  <advance width="564.75"/>
  <unicode hex="25CA"/>
  <outline>
    <contour>
      <point x="237.125" y="0.0" type="line"/>
      <point x="327.625" y="0.0" type="line"/>
      <point x="526.375" y="352.65" type="line"/>
      <point x="327.625" y="700.0" type="line"/>
      <point x="237.125" y="700.0" type="line"/>
      <point x="38.375" y="349.95" type="line"/>
    </contour>
    <contour>
      <point x="282.375" y="112.525" type="line"/>
      <point x="281.375" y="118.175"/>
      <point x="278.04999999999995" y="123.825"/>
      <point x="275.725" y="128.15" type="curve" smooth="yes"/>
      <point x="158.175" y="353.325" type="line"/>
      <point x="273.7" y="572.85" type="line" smooth="yes"/>
      <point x="276.025" y="577.175"/>
      <point x="278.025" y="582.825"/>
      <point x="279.35" y="588.475" type="curve"/>
      <point x="282.675" y="588.475" type="line"/>
      <point x="283.675" y="582.825"/>
      <point x="286.0" y="577.175"/>
      <point x="288.325" y="572.85" type="curve" smooth="yes"/>
      <point x="405.90000000000003" y="349.275" type="line"/>
      <point x="290.35" y="128.15" type="line" smooth="yes"/>
      <point x="288.025" y="123.825"/>
      <point x="285.70000000000005" y="118.175"/>
      <point x="284.7" y="112.525" type="curve"/>
    </contour>
  </outline>
</glyph>
<glyph name="rightanglebracket-math" format="2">
  <advance width="347.375"/>
  <unicode hex="27E9"/>
  <outline>
    <contour>
      <point x="42.275" y="-220.0" type="line"/>
      <point x="167.375" y="-220.0" type="line"/>
      <point x="337.375" y="240.0" type="line"/>
      <point x="167.375" y="700.0" type="line"/>
      <point x="43.275" y="700.0" type="line"/>
      <point x="212.27499999999998" y="238.0" type="line"/>
      <point x="212.27499999999998" y="233.0" type="line"/>
    </contour>
  </outline>
</glyph>
<glyph name="a.ss01" format="2">
  <advance width="552.3"/>
  <anchor x="262.125" y="0.0" name="bottom"/>
  <anchor x="372.875" y="0.0" name="ogonek"/>
  <anchor x="266.125" y="500.125" name="top"/>
  <outline>
    <contour>
      <point x="209.625" y="-12.325000000000001" type="curve" smooth="yes"/>
      <point x="299.15" y="-12.325000000000001"/>
      <point x="347.54999999999995" y="30.575"/>
      <point x="367.525" y="67.925" type="curve"/>
      <point x="373.525" y="67.925" type="line"/>
      <point x="373.525" y="0.0" type="line"/>
      <point x="486.65000000000003" y="0.0" type="line"/>
      <point x="486.65000000000003" y="324.375" type="line" smooth="yes"/>
      <point x="486.65000000000003" y="433.25"/>
      <point x="396.825" y="513.125"/>
      <point x="264.725" y="513.125" type="curve" smooth="yes"/>
      <point x="170.375" y="513.125"/>
      <point x="105.3" y="478.375"/>
      <point x="52.025000000000006" y="419.07500000000005" type="curve"/>
      <point x="129.65" y="343.5" type="line"/>
      <point x="163.2" y="382.04999999999995"/>
      <point x="206.825" y="406.04999999999995"/>
      <point x="266.125" y="406.04999999999995" type="curve" smooth="yes"/>
      <point x="329.8" y="406.04999999999995"/>
      <point x="369.525" y="372.725"/>
      <point x="369.525" y="329.075" type="curve" smooth="yes"/>
      <point x="369.525" y="283.7" type="line"/>
      <point x="395.35" y="312.25" type="line"/>
      <point x="280.65" y="304.575" type="line" smooth="yes"/>
      <point x="117.475" y="293.55"/>
      <point x="45.650000000000006" y="233.75"/>
      <point x="45.650000000000006" y="139.125" type="curve" smooth="yes"/>
      <point x="45.650000000000006" y="52.724999999999994"/>
      <point x="115.975" y="-12.325000000000001"/>
    </contour>
    <contour>
      <point x="245.22500000000002" y="86.72500000000001" type="curve" smooth="yes"/>
      <point x="190.025" y="86.72500000000001"/>
      <point x="158.725" y="109.0"/>
      <point x="158.725" y="146.5" type="curve" smooth="yes"/>
      <point x="158.725" y="192.39999999999998"/>
      <point x="217.8" y="208.625"/>
      <point x="291.375" y="213.60000000000002" type="curve" smooth="yes"/>
      <point x="394.7" y="220.6" type="line"/>
      <point x="369.525" y="247.075" type="line"/>
      <point x="369.525" y="209.07500000000002" type="line" smooth="yes"/>
      <point x="369.525" y="142.22500000000002"/>
      <point x="323.325" y="86.72500000000001"/>
    </contour>
  </outline>
</glyph>
<glyph name="ast" format="2">
  <advance width="140.0"/>
  <outline>
    <contour>
      <point x="69.0" y="535.0" type="line"/>
      <point x="98.10000000000001" y="545.0" type="line"/>
      <point x="111.1" y="697.0" type="line"/>
      <point x="26.9" y="697.0" type="line"/>
      <point x="39.9" y="545.0" type="line"/>
    </contour>
  </outline>
</glyph>
<glyph name="f_f_l" format="2">
  <advance width="949.95"/>
  <anchor x="171.875" y="0.0" name="bottom_1"/>
  <anchor x="266.975" y="700.0" name="top_1"/>
  <anchor x="495.975" y="0.0" name="bottom_2"/>
  <anchor x="591.075" y="700.0" name="top_2"/>
  <anchor x="821.075" y="0.0" name="bottom_3"/>
  <anchor x="821.075" y="393.0" name="center_3"/>
  <anchor x="879.3" y="0.0" name="ogonek_3"/>
  <anchor x="821.75" y="700.0" name="top_3"/>
  <anchor x="929.9749999999999" y="700.0" name="topright_3"/>
  <anchor x="384.525" y="0.0" name="caret_1"/>
  <anchor x="708.625" y="0.0" name="caret_2"/>
  <outline>
    <contour>
      <point x="349.1" y="395.725" type="line"/>
      <point x="869.3" y="395.725" type="line"/>
      <point x="879.3" y="500.125" type="line"/>
      <point x="349.1" y="500.125" type="line"/>
    </contour>
    <component base="f"/>
    <component base="f" xOffset="324.1"/>
    <component base="l" xOffset="691.525"/>
  </outline>
</glyph>
<glyph name="f_f_l.ss11" format="2">
  <advance width="921.95"/>
  <anchor x="383.85" y="0.0" name="caret_1"/>
  <anchor x="678.25" y="0.0" name="caret_2"/>
  <outline>
    <contour>
      <point x="114.3" y="0.0" type="line"/>
      <point x="231.425" y="0.0" type="line"/>
      <point x="231.425" y="509.8" type="line" smooth="yes"/>
      <point x="231.425" y="566.4"/>
      <point x="266.4" y="605.925"/>
      <point x="329.85" y="605.925" type="curve" smooth="yes"/>
      <point x="389.65000000000003" y="605.925"/>
      <point x="424.575" y="568.425"/>
      <point x="424.575" y="515.2" type="curve" smooth="yes"/>
      <point x="424.575" y="0.0" type="line"/>
      <point x="541.7" y="0.0" type="line"/>
      <point x="541.7" y="509.8" type="line" smooth="yes"/>
      <point x="541.7" y="566.4"/>
      <point x="576.675" y="605.925"/>
      <point x="640.125" y="605.925" type="curve" smooth="yes"/>
      <point x="699.925" y="605.925"/>
      <point x="734.85" y="568.425"/>
      <point x="734.85" y="515.2" type="curve" smooth="yes"/>
      <point x="734.85" y="0.0" type="line"/>
      <point x="851.975" y="0.0" type="line"/>
      <point x="851.975" y="507.1" type="line" smooth="yes"/>
      <point x="851.975" y="628.6999999999999"/>
      <point x="766.25" y="713.0"/>
      <point x="640.125" y="713.0" type="curve" smooth="yes"/>
      <point x="570.575" y="713.0"/>
      <point x="491.8" y="670.675"/>
      <point x="472.4" y="599.95" type="curve"/>
      <point x="541.7" y="633.05" type="line"/>
      <point x="425.95000000000005" y="633.05" type="line"/>
      <point x="495.25" y="598.95" type="line"/>
      <point x="475.525" y="671.675"/>
      <point x="397.425" y="713.0"/>
      <point x="329.85" y="713.0" type="curve" smooth="yes"/>
      <point x="200.075" y="713.0"/>
      <point x="114.3" y="628.6999999999999"/>
      <point x="114.3" y="508.4" type="curve" smooth="yes"/>
    </contour>
    <contour>
      <point x="19.025" y="395.725" type="line"/>
      <point x="675.0" y="395.725" type="line"/>
      <point x="675.0" y="500.125" type="line"/>
      <point x="19.025" y="500.125" type="line"/>
    </contour>
  </outline>
</glyph>
<glyph name="f_i.ss11" format="2">
  <advance width="615.05"/>
  <anchor x="486.175" y="0.0" name="bottom_1"/>
  <anchor x="459.65" y="0.0" name="ogonek_1"/>
  <anchor x="486.175" y="500.125" name="top_1"/>
  <anchor x="371.025" y="0.0" name="caret_1"/>
  <outline>
    <contour>
      <point x="114.3" y="0.0" type="line"/>
      <point x="231.425" y="0.0" type="line"/>
      <point x="231.425" y="515.125" type="line" smooth="yes"/>
      <point x="231.425" y="574.025"/>
      <point x="268.925" y="609.3"/>
      <point x="329.85" y="609.3" type="curve" smooth="yes"/>
      <point x="392.4" y="609.3"/>
      <point x="427.6" y="570.75"/>
      <point x="427.6" y="507.25" type="curve"/>
      <point x="396.025" y="551.4000000000001" type="line"/>
      <point x="562.825" y="551.4000000000001" type="line"/>
      <point x="544.4" y="508.9" type="line"/>
      <point x="544.4" y="634.3"/>
      <point x="452.2" y="713.0"/>
      <point x="329.85" y="713.0" type="curve" smooth="yes"/>
      <point x="202.675" y="713.0"/>
      <point x="114.3" y="638.275"/>
      <point x="114.3" y="519.8" type="curve" smooth="yes"/>
    </contour>
    <contour>
      <point x="19.025" y="395.725" type="line"/>
      <point x="364.725" y="395.725" type="line"/>
      <point x="364.725" y="500.125" type="line"/>
      <point x="19.025" y="500.125" type="line"/>
    </contour>
    <component base="idotless" xOffset="356.625"/>
  </outline>
</glyph>
<glyph name="f_t" format="2">
  <advance width="784.825"/>
  <anchor x="171.875" y="0.0" name="bottom_1"/>
  <anchor x="266.975" y="700.0" name="top_1"/>
  <anchor x="578.85" y="305.35" name="bar_2"/>
  <anchor x="631.0" y="0.0" name="bottom_2"/>
  <anchor x="559.35" y="276.0" name="center_2"/>
  <anchor x="559.35" y="629.85" name="top_2"/>
  <anchor x="688.025" y="700.0" name="topright_2"/>
  <anchor x="392.0" y="0.0" name="caret_1"/>
  <outline>
    <contour>
      <point x="146.60000000000002" y="395.725" type="line"/>
      <point x="583.6" y="395.725" type="line"/>
      <point x="590.35" y="500.125" type="line"/>
      <point x="146.60000000000002" y="500.125" type="line"/>
    </contour>
    <component base="f"/>
    <component base="t" xOffset="380.3"/>
  </outline>
</glyph>
<glyph name="hookabovecombviet.case" format="2">
  <advance width="300.0"/>
  <anchor x="0.0" y="700.0" name="_top"/>
  <anchor x="0.0" y="866.425" name="top"/>
  <outline>
    <contour>
      <point x="0.0" y="725.85" type="line"/>
      <point x="40.5" y="747.55"/>
      <point x="60.125" y="773.225"/>
      <point x="60.125" y="808.275" type="curve" smooth="yes"/>
      <point x="60.125" y="852.625"/>
      <point x="21.075000000000003" y="901.375"/>
      <point x="-54.75" y="901.375" type="curve" smooth="yes"/>
      <point x="-85.425" y="901.375"/>
      <point x="-115.875" y="890.6500000000001"/>
      <point x="-139.225" y="875.9750000000001" type="curve"/>
      <point x="-101.4" y="809.7750000000001" type="line"/>
      <point x="-87.375" y="818.45"/>
      <point x="-68.35" y="824.125"/>
      <point x="-51.0" y="824.125" type="curve" smooth="yes"/>
      <point x="-24.925" y="824.125"/>
      <point x="-9.975" y="810.45"/>
      <point x="-9.975" y="794.825" type="curve" smooth="yes"/>
      <point x="-9.975" y="783.2"/>
      <point x="-18.625" y="772.875"/>
      <point x="-38.025000000000006" y="765.2" type="curve"/>
    </contour>
  </outline>
</glyph>
<glyph name="horn.alt_case" format="2">
  <advance width="541.175"/>
  <anchor x="172.85000000000002" y="700.0" name="_topright"/>
  <outline>
    <contour>
      <point x="138.775" y="612.075" type="line"/>
      <point x="256.0" y="604.75"/>
      <point x="325.45" y="661.575"/>
      <point x="325.45" y="747.7" type="curve" smooth="yes"/>
      <point x="325.45" y="773.25"/>
      <point x="320.45" y="797.7"/>
      <point x="315.45" y="812.7" type="curve"/>
      <point x="212.45000000000002" y="812.7" type="line"/>
      <point x="218.77499999999998" y="795.7"/>
      <point x="222.425" y="777.7"/>
      <point x="222.425" y="761.075" type="curve" smooth="yes"/>
      <point x="223.10000000000002" y="722.975"/>
      <point x="207.125" y="700.0"/>
      <point x="153.125" y="700.0" type="curve"/>
    </contour>
  </outline>
</glyph>
<glyph name="hungarumlautcomb.case" format="2">
  <anchor x="0.0" y="700.0" name="_top"/>
  <outline>
    <contour>
      <point x="39.075" y="740.0" type="line"/>
      <point x="101.875" y="740.0" type="line"/>
      <point x="201.35" y="853.0" type="line"/>
      <point x="82.425" y="853.0" type="line"/>
    </contour>
    <contour>
      <point x="-101.875" y="740.0" type="line"/>
      <point x="-39.075" y="740.0" type="line"/>
      <point x="60.400000000000006" y="853.0" type="line"/>
      <point x="-58.525000000000006" y="853.0" type="line"/>
    </contour>
  </outline>
</glyph>
<glyph name="lari.tf" format="2">
  <advance width="596.0"/>
  <outline>
    <contour>
      <point x="479.85" y="396.675" type="curve"/>
      <point x="592.875" y="395.325" type="line"/>
      <point x="573.45" y="565.775"/>
      <point x="476.29999999999995" y="679.75"/>
      <point x="311.675" y="679.75" type="curve" smooth="yes"/>
      <point x="141.075" y="679.75"/>
      <point x="28.825" y="541.475"/>
      <point x="28.825" y="361.275" type="curve" smooth="yes"/>
      <point x="28.825" y="275.95000000000005"/>
      <point x="67.65" y="190.75"/>
      <point x="128.425" y="140.05" type="curve"/>
      <point x="128.425" y="137.725" type="line"/>
      <point x="13.575" y="137.725" type="line"/>
      <point x="13.575" y="23.25" type="line"/>
      <point x="566.0" y="23.25" type="line"/>
      <point x="566.0" y="137.725" type="line"/>
      <point x="401.225" y="137.725" type="line" smooth="yes"/>
      <point x="227.6" y="137.725"/>
      <point x="140.5" y="221.7"/>
      <point x="140.5" y="361.275" type="curve" smooth="yes"/>
      <point x="140.5" y="502.025"/>
      <point x="195.15" y="578.1"/>
      <point x="311.675" y="578.1" type="curve" smooth="yes"/>
      <point x="413.42500000000007" y="578.1"/>
      <point x="463.775" y="516.6"/>
    </contour>
    <contour>
      <point x="328.6" y="775.0" type="line"/>
      <point x="328.6" y="395.0" type="line"/>
      <point x="412.1" y="395.0" type="line"/>
      <point x="412.1" y="775.0" type="line"/>
    </contour>
    <contour>
      <point x="207.20000000000002" y="775.0" type="line"/>
      <point x="207.20000000000002" y="395.0" type="line"/>
      <point x="290.70000000000005" y="395.0" type="line"/>
      <point x="290.70000000000005" y="775.0" type="line"/>
    </contour>
  </outline>
</glyph>
<glyph name="ordfeminine.ss01" format="2">
  <advance width="468.9"/>
  <outline>
    <contour>
      <point x="62.875" y="171.3" type="line"/>
      <point x="395.775" y="171.3" type="line"/>
      <point x="395.775" y="256.0" type="line"/>
      <point x="62.875" y="256.0" type="line"/>
    </contour>
    <contour>
      <point x="184.275" y="310.675" type="curve" smooth="yes"/>
      <point x="251.125" y="310.675"/>
      <point x="281.75" y="343.25"/>
      <point x="298.025" y="371.925" type="curve"/>
      <point x="303.025" y="371.925" type="line"/>
      <point x="303.025" y="320.0" type="line"/>
      <point x="395.775" y="320.0" type="line"/>
      <point x="395.775" y="568.3" type="line" smooth="yes"/>
      <point x="395.775" y="651.85"/>
      <point x="325.625" y="713.0"/>
      <point x="231.4" y="713.0" type="curve" smooth="yes"/>
      <point x="145.575" y="713.0"/>
      <point x="96.25" y="686.275"/>
      <point x="55.974999999999994" y="640.9749999999999" type="curve"/>
      <point x="114.85" y="583.475" type="line"/>
      <point x="140.425" y="612.7"/>
      <point x="168.6" y="631.375"/>
      <point x="219.625" y="631.375" type="curve" smooth="yes"/>
      <point x="263.225" y="631.375"/>
      <point x="299.7" y="605.375"/>
      <point x="299.7" y="572.325" type="curve" smooth="yes"/>
      <point x="299.7" y="539.325" type="line"/>
      <point x="319.475" y="560.825" type="line"/>
      <point x="236.925" y="555.15" type="line" smooth="yes"/>
      <point x="105.39999999999999" y="545.775"/>
      <point x="50.95" y="500.7"/>
      <point x="50.95" y="426.40000000000003" type="curve" smooth="yes"/>
      <point x="50.95" y="360.7"/>
      <point x="106.225" y="310.675"/>
    </contour>
    <contour>
      <point x="209.45" y="391.34999999999997" type="curve" smooth="yes"/>
      <point x="170.275" y="391.34999999999997"/>
      <point x="144.325" y="405.6"/>
      <point x="144.325" y="434.79999999999995" type="curve" smooth="yes"/>
      <point x="144.325" y="474.1"/>
      <point x="188.65" y="485.0"/>
      <point x="245.3" y="488.975" type="curve" smooth="yes"/>
      <point x="318.825" y="494.3" type="line"/>
      <point x="299.7" y="514.75" type="line"/>
      <point x="299.7" y="479.0" type="line" smooth="yes"/>
      <point x="299.7" y="429.15"/>
      <point x="259.8" y="391.34999999999997"/>
    </contour>
  </outline>
</glyph>
<glyph name="rupeeIndian.tf" format="2">
  <advance width="596.0"/>
  <outline>
    <contour>
      <point x="316.55" y="23.25" type="line"/>
      <point x="460.75" y="23.25" type="line"/>
      <point x="231.77499999999998" y="308.625" type="line"/>
      <point x="246.675" y="257.75" type="line"/>
      <point x="369.225" y="265.475"/>
      <point x="460.75" y="341.6"/>
      <point x="460.75" y="464.22499999999997" type="curve" smooth="yes"/>
      <point x="460.75" y="592.85"/>
      <point x="384.1" y="676.75"/>
      <point x="244.95" y="676.75" type="curve" smooth="yes"/>
      <point x="30.65" y="676.75" type="line"/>
      <point x="30.65" y="560.925" type="line"/>
      <point x="213.375" y="560.925" type="line" smooth="yes"/>
      <point x="306.675" y="560.925"/>
      <point x="336.95" y="530.275"/>
      <point x="336.95" y="463.55" type="curve" smooth="yes"/>
      <point x="336.95" y="395.175"/>
      <point x="296.925" y="363.85"/>
      <point x="203.625" y="363.85" type="curve" smooth="yes"/>
      <point x="30.65" y="363.85" type="line"/>
      <point x="30.65" y="251.4" type="line"/>
      <point x="126.025" y="251.4" type="line"/>
    </contour>
    <contour>
      <point x="26.6" y="422.17499999999995" type="line"/>
      <point x="501.05" y="422.17499999999995" type="line"/>
      <point x="556.8" y="502.95" type="line"/>
      <point x="82.35" y="502.95" type="line"/>
    </contour>
    <contour>
      <point x="180.325" y="595.65" type="line"/>
      <point x="524.3" y="595.65" type="line"/>
      <point x="580.05" y="676.4250000000001" type="line"/>
      <point x="180.325" y="676.4250000000001" type="line"/>
    </contour>
  </outline>
</glyph>
